<?xml version="1.0" encoding="UTF-8" standalone="no"?>
<svg
   fill="none"
   viewBox="0 0 394 80"
   version="1.1"
   id="svg2"
   sodipodi:docname="nextoldのコピー.svg"
   inkscape:version="1.4 (e7c3feb1, 2024-10-09)"
   xmlns:inkscape="http://www.inkscape.org/namespaces/inkscape"
   xmlns:sodipodi="http://sodipodi.sourceforge.net/DTD/sodipodi-0.dtd"
   xmlns="http://www.w3.org/2000/svg"
   xmlns:svg="http://www.w3.org/2000/svg">
  <defs
     id="defs2" />
  <sodipodi:namedview
     id="namedview2"
     pagecolor="#ffffff"
     bordercolor="#000000"
     borderopacity="0.25"
     inkscape:showpageshadow="2"
     inkscape:pageopacity="0.0"
     inkscape:pagecheckerboard="0"
     inkscape:deskcolor="#d1d1d1"
     inkscape:zoom="1.3"
     inkscape:cx="160"
     inkscape:cy="39.230769"
     inkscape:window-width="1920"
     inkscape:window-height="1201"
     inkscape:window-x="0"
     inkscape:window-y="42"
     inkscape:window-maximized="0"
     inkscape:current-layer="svg2" />
  <path
     style="fill:#000000"
     id="path2"
     d="m 92.286246,20.640142 c -5.929835,9.410592 -9.709509,19.961613 -13.43547,30.381934 -1.466246,4.428574 -3.147431,8.793487 -4.390274,13.294483 -0.194172,0.703203 -0.387638,1.409458 -0.505272,2.12943 -0.05989,0.366556 -0.346736,0.929003 -0.02466,1.113975 4.456211,2.559239 9.219262,4.542608 13.828893,6.813912 0,0 -12.467043,-8.146812 -12.467043,-8.146812 v 0 c 4.030068,2.584238 8.002461,5.260707 12.090203,7.752713 0.242977,0.148126 -0.471223,-0.406551 -0.503723,-0.689258 -0.08213,-0.714429 0.06062,-1.4405 0.177306,-2.150106 0.760696,-4.626098 2.396216,-9.069356 3.650145,-13.566609 3.50049,-10.254443 7.25638,-20.851038 14.364779,-29.233453 z" />
  <path
     style="fill:#000000"
     id="path3"
     d="M 100.3011,21.992386 C 78.259894,8.8066574 90.756572,16.367082 95.238319,20.08897 c 1.668431,1.385556 1.913892,1.725233 3.38033,3.254993 1.379886,1.712342 3.546831,4.113667 1.913511,6.365333 -0.24069,0.331808 -0.576253,0.58313 -0.864379,0.874695 -1.657594,1.16532 -3.581547,1.767353 -5.574001,2.012439 -0.531581,0.361003 -0.841331,0.461266 -0.92388,1.32761 -0.02873,0.301483 0.0452,0.696068 0.301774,0.856964 4.439006,2.783681 9.125136,5.155431 13.608926,7.866377 3.85273,2.329395 -7.781796,-4.531207 -11.715286,-6.721464 -0.369406,-0.205694 0.675762,0.508363 1.013642,0.762544 1.062729,0.99789 2.605501,2.807588 1.72594,4.412154 -0.152958,0.279039 -0.422569,0.475889 -0.633854,0.713834 -3.092314,1.964765 -6.720409,2.94826 -10.164249,4.146874 -1.135449,0.500715 -2.438308,0.616354 -3.511825,1.24688 0,0 12.588806,8.221077 12.588806,8.221077 v 0 c 1.021337,-0.46662 2.104424,-0.791891 3.138162,-1.228482 3.627934,-1.378345 7.537714,-2.383582 10.666244,-4.751043 0.32214,-0.402207 0.71118,-0.758968 0.96643,-1.20662 1.11538,-1.956102 0.28987,-4.387169 -1.04871,-5.958686 -4.6383,-4.87522 0.36897,0.210814 -14.624442,-8.99217 -3.926101,-2.409848 8.056652,4.48024 11.945802,6.949285 0.19606,0.124471 -0.47861,0.0726 -0.66317,0.213552 -1.01619,0.776069 -0.77325,0.722995 -0.37582,0.711826 2.14905,-0.585336 4.21198,-1.431417 5.92225,-2.90198 0.35775,-0.405826 0.76693,-0.77155 1.07324,-1.217479 2.08562,-3.036263 0.66884,-5.464964 -1.304,-8.064835 -1.36478,-1.532566 -1.80142,-2.112478 -3.36975,-3.49484 -5.95845,-5.251892 -13.333823,-8.897052 -20.03062,-12.897934 z" />
  <path
     style="fill:#000000"
     id="path4"
     d="m 152.19564,22.404801 c -3.9305,5.331933 -7.31699,11.008689 -10.37073,16.878185 -1.84188,3.345655 -3.10094,6.937958 -4.40548,10.509016 -2.13373,4.838388 -1.10335,2.222345 13.36839,6.822388 0.6728,0.21386 0.48016,-1.327972 0.73771,-1.98529 0.45284,-1.155728 0.9097,-2.310152 1.39325,-3.453367 1.95314,-4.617593 2.06229,-4.689612 4.30609,-9.331775 2.23952,-4.415645 2.43776,-4.926146 4.8069,-9.145743 1.02934,-1.833336 2.55382,-4.807627 4.27823,-6.252369 2.11855,-1.774963 3.29,-1.438885 5.92399,-1.659909 3.57616,0.476783 4.26682,0.381596 7.70838,1.600147 1.14574,0.405669 4.39045,2.072834 3.34246,1.457201 -16.99852,-9.985683 -10.14652,-6.567362 -7.48929,-2.785199 0.62067,0.883424 1.02762,1.899124 1.54143,2.848686 2.45943,6.145629 1.76219,12.785867 0.96098,19.191657 -0.31546,0.835458 -0.21163,3.182914 -1.31112,3.730663 -0.86709,0.431971 -4.92964,-0.461626 -5.59047,-0.568135 0,0 11.56278,8.658702 11.56278,8.658702 v 0 c 1.65267,0.216594 3.71923,0.683571 5.42914,0.257018 2.41348,-0.602065 2.51535,-3.380076 2.79456,-5.344657 0.55167,-6.660041 1.3947,-13.531359 -0.76808,-19.997056 -0.65786,-1.476823 -1.89074,-4.828895 -3.36905,-5.847914 -6.49757,-4.478856 -14.08183,-9.90911 -22.33627,-11.145559 -1.3786,-0.206502 -2.78049,-0.20389 -4.17073,-0.305835 -1.23181,0.235295 -2.52917,0.244864 -3.69544,0.705886 -3.70021,1.462682 -5.24977,5.268615 -6.9441,8.505068 -3.02896,5.785818 -1.68859,3.192701 -4.75033,9.226918 -2.11366,4.159316 -4.18993,8.338085 -6.37905,12.458449 -0.31818,0.598879 -1.49419,1.360366 -0.9687,1.789036 15.39609,12.559476 15.1882,12.236125 12.74076,7.73069 0.80459,-3.663724 2.07742,-7.196547 3.72209,-10.570054 2.94233,-5.836122 6.20122,-11.572152 10.71378,-16.36098 z" />
  <path
     style="fill:#000000"
     id="path5"
     d="m 162.72682,43.979752 c 11.6648,3.982144 23.24475,8.204341 34.80685,12.474125 3.94902,1.520604 7.94562,2.908771 11.96202,4.23828 0,0 -11.46929,-8.882273 -11.46929,-8.882273 v 0 c -3.73589,-1.121728 -7.45096,-2.31106 -11.11476,-3.653496 -12.06395,-4.302832 -24.07357,-8.747879 -36.04259,-13.306548 z" />
  <path
     style="fill:#000000"
     id="path6"
     d="m 214.60286,16.706676 c -3.28394,9.704472 -5.76459,19.644581 -7.68826,29.700523 -0.2484,1.501211 -0.50286,3.001431 -0.74519,4.503632 -0.088,0.545172 -0.75375,4.710377 -0.85342,5.738392 -0.0334,0.344547 -0.31266,0.873773 -0.008,1.038455 14.2205,7.691368 12.02706,10.940936 14.69393,3.786337 0,0 -12.67868,-7.131872 -12.67868,-7.131872 v 0 c -3.26918,6.29563 -1.84892,1.936071 11.45396,9.741102 0.25191,0.147798 -0.46528,-0.423689 -0.51028,-0.712264 -0.1631,-1.045991 0.29228,-5.34395 0.3516,-5.890605 0.16478,-1.518584 0.37437,-3.031971 0.56155,-4.547956 1.64924,-9.926758 3.8983,-19.889524 8.37404,-28.96924 z" />
  <path
     style="fill:#000000"
     id="path7"
     d="m 223.54495,19.903422 c 2.89929,2.567005 4.09022,5.712768 5.02357,9.373173 0.064,0.833582 0.23222,1.66569 0.19186,2.500747 -0.31669,6.551524 -4.82347,9.963247 -9.77508,13.358612 -2.2198,1.363892 -4.54704,2.544024 -6.96191,3.520233 -0.44503,0.179903 -0.88545,0.38003 -1.3497,0.502069 -0.21114,0.0555 -0.83917,-0.09162 -0.65447,0.02478 4.25728,2.682918 8.64348,5.155597 12.96523,7.733395 0,0 -12.7847,-7.815779 -12.7847,-7.815779 v 0 c 4.04848,2.856932 7.98411,5.880899 12.14545,8.570795 0.19807,0.128032 0.42461,-0.205432 0.63684,-0.308303 0.4262,-0.206591 0.85615,-0.40565 1.27847,-0.620081 2.32781,-1.181945 4.58848,-2.493871 6.75658,-3.949745 5.21182,-3.794079 9.92004,-7.601021 10.71081,-14.475986 0.10338,-0.898768 -0.0157,-1.80932 -0.0236,-2.71398 -0.73536,-3.647882 -1.70731,-7.192071 -4.32915,-9.971257 z" />
  <path
     style="fill:#000000"
     id="path8"
     d="m 267.33981,13.907284 c 2.69398,9.800984 6.80497,19.157934 10.73872,28.51127 1.9911,4.36252 3.64737,8.892815 5.92894,13.11877 2.6697,4.993347 1.04786,2.211737 14.00452,7.483727 0.43938,0.178781 0.73435,-0.600917 1.09154,-0.913057 0.45499,-0.397604 0.89615,-0.810759 1.34454,-1.215785 2.48665,-2.246155 1.09496,-0.957477 3.90359,-3.636398 0.86414,-0.936679 1.76696,-1.839091 2.59241,-2.810036 1.00974,-1.187725 1.94352,-2.438003 2.90945,-3.661623 4.45425,-5.642537 8.70258,-11.438735 13.13539,-17.097311 2.34113,-2.382596 4.34351,-6.110679 7.50367,-7.59539 0,0 -12.56832,-8.070676 -12.56832,-8.070676 v 0 c -2.85821,2.321985 -4.63129,5.722283 -6.91964,8.542662 -3.27055,4.425614 -6.5849,8.802308 -10.03518,13.090298 -1.71901,2.136383 -4.29102,5.328568 -6.19088,7.363955 -0.85581,0.916855 -1.78857,1.758729 -2.68286,2.638093 -1.45967,1.237606 -2.63769,2.267244 -4.12156,3.42534 -0.44788,0.349554 -0.8863,0.715429 -1.368,1.016685 -0.28343,0.177261 -1.19382,0.226857 -0.91481,0.411003 9.38264,6.192548 17.16839,8.848255 11.96389,7.047832 -2.92277,-4.105884 -4.67222,-8.918196 -6.98824,-13.361803 -4.02394,-8.949266 -8.10644,-18.081338 -9.94643,-27.77014 z" />
</svg>
